<svg version="1" xmlns="http://www.w3.org/2000/svg" width="346.667" height="346.667" viewBox="0 0 260.000000 260.000000"><path d="M0 130v130h260V0H0v130zm109-30v8H86v66H67v-67H44V92h65v8zm26.5-6.6c1.1.8 7.6 12.7 14.5 26.5l12.4 25 12.8-25.2c7.1-13.9 13.6-25.8 14.5-26.5 1-.7 4.9-1.2 9.9-1.2h8.3l.7 3.7c.4 2 .4 15.6.1 30.2-.4 14.6-.7 31.4-.7 37.3V174h-16l-.2-26.5-.3-26.4-10.8 20.8c-5.9 11.5-11.5 21.5-12.4 22.2-.9.8-3.6 1.4-6 1.4-5.6 0-6.2-.7-15.2-18.3-3.8-7.5-8.6-16.6-10.5-20.2l-3.6-6.5.6 7.1c.4 3.9.3 15.9-.1 26.7l-.7 19.7H117V92h8.3c5.5 0 8.9.5 10.2 1.4z"/></svg>